<svg xmlns="http://www.w3.org/2000/svg" viewBox="0 0 24 24" fill="currentColor" width="24" height="24">
  <path d="M20.317 4.37a19.791 19.791 0 0 0-4.885-1.515.074.074 0 0 0-.079.037c-.21.375-.442.753-.672 1.132a19.276 19.276 0 0 0-5.467 0 13.62 13.62 0 0 0-.673-1.132.077.077 0 0 0-.079-.037A19.736 19.736 0 0 0 3.684 4.37a.07.07 0 0 0-.032.027C.533 9.046-.32 13.58.099 18.057a.083.083 0 0 0 .031.057 19.9 19.9 0 0 0 1.533 4.66.077.077 0 0 0 .078-.037c.23-.376.462-.754.691-1.133a19.243 19.243 0 0 0 5.467-.001c.23.379.462.757.692 1.133a.077.077 0 0 0 .078.037 19.813 19.813 0 0 0 4.884-1.514.072.072 0 0 0 .03-.027c.596-6.053 2.084-10.405 5.678-13.709a.077.077 0 0 0-.029-.055zm-6.6 10.163c-1.643 0-2.972-1.346-2.972-3.003 0-1.657 1.33-3.003 2.972-3.003 1.642 0 2.972 1.346 2.972 3.003 0 1.657-1.33 3.003-2.972 3.003zm8.657-5.073c-.489-2.538-2.354-4.65-4.989-4.965a31.7 31.7 0 0 0-4.847.038c-2.635.314-4.5 2.426-4.989 4.965a31.09 31.09 0 0 0-.039 4.883 25.72 25.72 0 0 0 .982 3.936.078.078 0 0 0 .085.08 14.768 14.768 0 0 0 3.864.771c2.382 0 4.582-.774 6.137-2.106a.078.078 0 0 0-.003-.137 27.485 27.485 0 0 0 1.198-3.674.075.075 0 0 0-.078-.092 28.858 28.858 0 0 0-2.685-3.773c-.359-.715-.643-1.457-.846-2.226a30.56 30.56 0 0 0-.106-4.954zM9.737 12.41c0 1.183.957 2.142 2.135 2.142 1.177 0 2.134-.958 2.134-2.142 0-1.182-.957-2.142-2.134-2.142-1.177 0-2.135.96-2.135 2.142z"/>
</svg>