<svg xmlns="http://www.w3.org/2000/svg" viewBox="0 0 24 24" fill="currentColor" width="24" height="24">
  <path d="M12 0C5.373 0 0 5.373 0 12s5.373 12 12 12 12-5.373 12-12S18.627 0 12 0zm5.521 17.34c-.75.546-1.76.74-2.902.493-1.238-.262-2.088-.91-2.619-1.795a1.938 1.938 0 010-3.481c.531-.885 1.38-1.534 2.619-1.795 1.14-.248 2.15-.054 2.9.493.752.546 1.143 1.419 1.143 2.363 0 .81-.325 1.561-.913 2.151-.59.59-1.333.885-2.27.885zm-5.051-.937c0-.735.476-1.214 1.237-1.214.76 0 1.246.479 1.246 1.214 0 .683-.486 1.191-1.246 1.191-.76 0-1.237-.508-1.237-1.191zm-.523-3.336c-.73 0-1.397-.425-1.6-.993a4.203 4.203 0 010-2.016c.203-.568.87-.993 1.6-.993.73 0 1.397.425 1.6.993a4.147 4.147 0 010 2.016c-.203.568-.87.993-1.6.993zm9.113 3.336c0 .735-.476 1.214-1.237 1.214-.76 0-1.246-.479-1.246-1.214 0-.683.486-1.191 1.246-1.191.76 0 1.237.508 1.237 1.191z"/>
</svg>